
<svg xmlns="http://www.w3.org/2000/svg" width="24" height="24" viewBox="0 0 24 24" fill="#ffffff">
  <path d="M12,2C6.48,2,2,6.48,2,12c0,4.13,2.51,7.67,6.08,9.19L9.91,16.2c-0.58-0.29-1.23-0.45-1.91-0.45 c-2.42,0-4.38,1.96-4.38,4.38c0,0.08,0,0.15,0.01,0.22c-1.25-1.66-2-3.71-2-5.94C1.62,6.21,6.21,1.62,12,1.62 c5.79,0,10.38,4.59,10.38,10.38c0,5.79-4.59,10.38-10.38,10.38c-0.12,0-0.23-0.01-0.35-0.01l2.96-1.07 c0.56,0.36,1.22,0.56,1.92,0.56c2.02,0,3.67-1.64,3.67-3.67c0-2.02-1.64-3.67-3.67-3.67c-0.61,0-1.18,0.15-1.69,0.42L9.91,11.8 c0.06-0.03,0.12-0.05,0.18-0.08l2.83-3.52c0,0,0,0,0,0c1.37-1.37,3.58-1.37,4.95,0s1.37,3.58,0,4.95c-1.37,1.37-3.58,1.37-4.95,0 L9.74,16.4c0,0,0,0,0,0c-1.37,1.37-3.58,1.37-4.95,0c-1.37-1.37-1.37-3.58,0-4.95c0.18-0.18,0.39-0.33,0.6-0.46l3.2,1.29 c-0.11,0.3-0.17,0.61-0.17,0.94c0,1.52,1.23,2.75,2.75,2.75s2.75-1.23,2.75-2.75c0-1.52-1.23-2.75-2.75-2.75 c-0.05,0-0.09,0-0.14,0l-3.05-1.23c0.26-0.2,0.54-0.36,0.83-0.48l3.36-1.35c1.39,0.23,2.47,1.43,2.47,2.88 c0,1.61-1.31,2.92-2.92,2.92s-2.92-1.31-2.92-2.92c0-0.16,0.02-0.31,0.04-0.46l-2.19,2.72c1.48,0.38,3.18,0.05,4.35-1.12 c1.49-1.49,1.49-3.91,0-5.4c-1.49-1.49-3.91-1.49-5.4,0l-1.46,1.46c-0.66-0.41-1.41-0.65-2.19-0.72C6.7,3.21,9.19,2,12,2L12,2z"/>
</svg>
